<?xml version="1.0" encoding="utf-8"?>
<svg xmlns="http://www.w3.org/2000/svg" xmlns:xlink="http://www.w3.org/1999/xlink" width="600" height="400" viewBox="0 0 2400 1600">
<defs>
  <clipPath id="clip850">
    <rect x="0" y="0" width="2400" height="1600"/>
  </clipPath>
</defs>
<path clip-path="url(#clip850)" d="
M0 1600 L2400 1600 L2400 0 L0 0  Z
  " fill="#ffffff" fill-rule="evenodd" fill-opacity="1"/>
<defs>
  <clipPath id="clip851">
    <rect x="480" y="0" width="1681" height="1600"/>
  </clipPath>
</defs>
<path clip-path="url(#clip850)" d="
M219.033 1423.18 L2352.76 1423.18 L2352.76 47.2441 L219.033 47.2441  Z
  " fill="#ffffff" fill-rule="evenodd" fill-opacity="1"/>
<defs>
  <clipPath id="clip852">
    <rect x="219" y="47" width="2135" height="1377"/>
  </clipPath>
</defs>
<polyline clip-path="url(#clip852)" style="stroke:#000000; stroke-linecap:butt; stroke-linejoin:round; stroke-width:2; stroke-opacity:0.1; fill:none" points="
  279.421,1423.18 279.421,47.2441 
  "/>
<polyline clip-path="url(#clip852)" style="stroke:#000000; stroke-linecap:butt; stroke-linejoin:round; stroke-width:2; stroke-opacity:0.1; fill:none" points="
  503.082,1423.18 503.082,47.2441 
  "/>
<polyline clip-path="url(#clip852)" style="stroke:#000000; stroke-linecap:butt; stroke-linejoin:round; stroke-width:2; stroke-opacity:0.1; fill:none" points="
  726.743,1423.18 726.743,47.2441 
  "/>
<polyline clip-path="url(#clip852)" style="stroke:#000000; stroke-linecap:butt; stroke-linejoin:round; stroke-width:2; stroke-opacity:0.1; fill:none" points="
  950.403,1423.18 950.403,47.2441 
  "/>
<polyline clip-path="url(#clip852)" style="stroke:#000000; stroke-linecap:butt; stroke-linejoin:round; stroke-width:2; stroke-opacity:0.1; fill:none" points="
  1174.06,1423.18 1174.06,47.2441 
  "/>
<polyline clip-path="url(#clip852)" style="stroke:#000000; stroke-linecap:butt; stroke-linejoin:round; stroke-width:2; stroke-opacity:0.1; fill:none" points="
  1397.72,1423.18 1397.72,47.2441 
  "/>
<polyline clip-path="url(#clip852)" style="stroke:#000000; stroke-linecap:butt; stroke-linejoin:round; stroke-width:2; stroke-opacity:0.1; fill:none" points="
  1621.39,1423.18 1621.39,47.2441 
  "/>
<polyline clip-path="url(#clip852)" style="stroke:#000000; stroke-linecap:butt; stroke-linejoin:round; stroke-width:2; stroke-opacity:0.1; fill:none" points="
  1845.05,1423.18 1845.05,47.2441 
  "/>
<polyline clip-path="url(#clip852)" style="stroke:#000000; stroke-linecap:butt; stroke-linejoin:round; stroke-width:2; stroke-opacity:0.1; fill:none" points="
  2068.71,1423.18 2068.71,47.2441 
  "/>
<polyline clip-path="url(#clip852)" style="stroke:#000000; stroke-linecap:butt; stroke-linejoin:round; stroke-width:2; stroke-opacity:0.1; fill:none" points="
  2292.37,1423.18 2292.37,47.2441 
  "/>
<polyline clip-path="url(#clip850)" style="stroke:#000000; stroke-linecap:butt; stroke-linejoin:round; stroke-width:4; stroke-opacity:1; fill:none" points="
  219.033,1423.18 2352.76,1423.18 
  "/>
<polyline clip-path="url(#clip850)" style="stroke:#000000; stroke-linecap:butt; stroke-linejoin:round; stroke-width:4; stroke-opacity:1; fill:none" points="
  279.421,1423.18 279.421,1404.28 
  "/>
<polyline clip-path="url(#clip850)" style="stroke:#000000; stroke-linecap:butt; stroke-linejoin:round; stroke-width:4; stroke-opacity:1; fill:none" points="
  503.082,1423.18 503.082,1404.28 
  "/>
<polyline clip-path="url(#clip850)" style="stroke:#000000; stroke-linecap:butt; stroke-linejoin:round; stroke-width:4; stroke-opacity:1; fill:none" points="
  726.743,1423.18 726.743,1404.28 
  "/>
<polyline clip-path="url(#clip850)" style="stroke:#000000; stroke-linecap:butt; stroke-linejoin:round; stroke-width:4; stroke-opacity:1; fill:none" points="
  950.403,1423.18 950.403,1404.28 
  "/>
<polyline clip-path="url(#clip850)" style="stroke:#000000; stroke-linecap:butt; stroke-linejoin:round; stroke-width:4; stroke-opacity:1; fill:none" points="
  1174.06,1423.18 1174.06,1404.28 
  "/>
<polyline clip-path="url(#clip850)" style="stroke:#000000; stroke-linecap:butt; stroke-linejoin:round; stroke-width:4; stroke-opacity:1; fill:none" points="
  1397.72,1423.18 1397.72,1404.28 
  "/>
<polyline clip-path="url(#clip850)" style="stroke:#000000; stroke-linecap:butt; stroke-linejoin:round; stroke-width:4; stroke-opacity:1; fill:none" points="
  1621.39,1423.18 1621.39,1404.28 
  "/>
<polyline clip-path="url(#clip850)" style="stroke:#000000; stroke-linecap:butt; stroke-linejoin:round; stroke-width:4; stroke-opacity:1; fill:none" points="
  1845.05,1423.18 1845.05,1404.28 
  "/>
<polyline clip-path="url(#clip850)" style="stroke:#000000; stroke-linecap:butt; stroke-linejoin:round; stroke-width:4; stroke-opacity:1; fill:none" points="
  2068.71,1423.18 2068.71,1404.28 
  "/>
<polyline clip-path="url(#clip850)" style="stroke:#000000; stroke-linecap:butt; stroke-linejoin:round; stroke-width:4; stroke-opacity:1; fill:none" points="
  2292.37,1423.18 2292.37,1404.28 
  "/>
<path clip-path="url(#clip850)" d="M269.803 1481.64 L277.442 1481.64 L277.442 1455.28 L269.132 1456.95 L269.132 1452.69 L277.396 1451.02 L282.072 1451.02 L282.072 1481.64 L289.711 1481.64 L289.711 1485.58 L269.803 1485.58 L269.803 1481.64 Z" fill="#000000" fill-rule="evenodd" fill-opacity="1" /><path clip-path="url(#clip850)" d="M497.735 1481.64 L514.054 1481.64 L514.054 1485.58 L492.11 1485.58 L492.11 1481.64 Q494.772 1478.89 499.355 1474.26 Q503.962 1469.61 505.142 1468.27 Q507.388 1465.74 508.267 1464.01 Q509.17 1462.25 509.17 1460.56 Q509.17 1457.8 507.226 1456.07 Q505.304 1454.33 502.202 1454.33 Q500.003 1454.33 497.55 1455.09 Q495.119 1455.86 492.341 1457.41 L492.341 1452.69 Q495.165 1451.55 497.619 1450.97 Q500.073 1450.39 502.11 1450.39 Q507.48 1450.39 510.675 1453.08 Q513.869 1455.77 513.869 1460.26 Q513.869 1462.39 513.059 1464.31 Q512.272 1466.2 510.165 1468.8 Q509.587 1469.47 506.485 1472.69 Q503.383 1475.88 497.735 1481.64 Z" fill="#000000" fill-rule="evenodd" fill-opacity="1" /><path clip-path="url(#clip850)" d="M730.99 1466.95 Q734.347 1467.66 736.222 1469.93 Q738.12 1472.2 738.12 1475.53 Q738.12 1480.65 734.601 1483.45 Q731.083 1486.25 724.602 1486.25 Q722.426 1486.25 720.111 1485.81 Q717.819 1485.39 715.365 1484.54 L715.365 1480.02 Q717.31 1481.16 719.625 1481.74 Q721.939 1482.32 724.463 1482.32 Q728.861 1482.32 731.152 1480.58 Q733.467 1478.84 733.467 1475.53 Q733.467 1472.48 731.314 1470.77 Q729.185 1469.03 725.365 1469.03 L721.338 1469.03 L721.338 1465.19 L725.551 1465.19 Q729 1465.19 730.828 1463.82 Q732.657 1462.43 732.657 1459.84 Q732.657 1457.18 730.759 1455.77 Q728.884 1454.33 725.365 1454.33 Q723.444 1454.33 721.245 1454.75 Q719.046 1455.16 716.407 1456.04 L716.407 1451.88 Q719.069 1451.14 721.384 1450.77 Q723.722 1450.39 725.782 1450.39 Q731.106 1450.39 734.208 1452.83 Q737.31 1455.23 737.31 1459.35 Q737.31 1462.22 735.666 1464.21 Q734.023 1466.18 730.99 1466.95 Z" fill="#000000" fill-rule="evenodd" fill-opacity="1" /><path clip-path="url(#clip850)" d="M953.413 1455.09 L941.607 1473.54 L953.413 1473.54 L953.413 1455.09 M952.186 1451.02 L958.065 1451.02 L958.065 1473.54 L962.996 1473.54 L962.996 1477.43 L958.065 1477.43 L958.065 1485.58 L953.413 1485.58 L953.413 1477.43 L937.811 1477.43 L937.811 1472.92 L952.186 1451.02 Z" fill="#000000" fill-rule="evenodd" fill-opacity="1" /><path clip-path="url(#clip850)" d="M1164.34 1451.02 L1182.7 1451.02 L1182.7 1454.96 L1168.62 1454.96 L1168.62 1463.43 Q1169.64 1463.08 1170.66 1462.92 Q1171.68 1462.73 1172.7 1462.73 Q1178.49 1462.73 1181.86 1465.9 Q1185.24 1469.08 1185.24 1474.49 Q1185.24 1480.07 1181.77 1483.17 Q1178.3 1486.25 1171.98 1486.25 Q1169.8 1486.25 1167.54 1485.88 Q1165.29 1485.51 1162.88 1484.77 L1162.88 1480.07 Q1164.97 1481.2 1167.19 1481.76 Q1169.41 1482.32 1171.89 1482.32 Q1175.89 1482.32 1178.23 1480.21 Q1180.57 1478.1 1180.57 1474.49 Q1180.57 1470.88 1178.23 1468.77 Q1175.89 1466.67 1171.89 1466.67 Q1170.01 1466.67 1168.14 1467.08 Q1166.29 1467.5 1164.34 1468.38 L1164.34 1451.02 Z" fill="#000000" fill-rule="evenodd" fill-opacity="1" /><path clip-path="url(#clip850)" d="M1398.13 1466.44 Q1394.98 1466.44 1393.13 1468.59 Q1391.3 1470.74 1391.3 1474.49 Q1391.3 1478.22 1393.13 1480.39 Q1394.98 1482.55 1398.13 1482.55 Q1401.28 1482.55 1403.11 1480.39 Q1404.96 1478.22 1404.96 1474.49 Q1404.96 1470.74 1403.11 1468.59 Q1401.28 1466.44 1398.13 1466.44 M1407.41 1451.78 L1407.41 1456.04 Q1405.65 1455.21 1403.85 1454.77 Q1402.07 1454.33 1400.31 1454.33 Q1395.68 1454.33 1393.22 1457.45 Q1390.79 1460.58 1390.44 1466.9 Q1391.81 1464.89 1393.87 1463.82 Q1395.93 1462.73 1398.41 1462.73 Q1403.62 1462.73 1406.63 1465.9 Q1409.66 1469.05 1409.66 1474.49 Q1409.66 1479.82 1406.51 1483.03 Q1403.36 1486.25 1398.13 1486.25 Q1392.13 1486.25 1388.96 1481.67 Q1385.79 1477.06 1385.79 1468.33 Q1385.79 1460.14 1389.68 1455.28 Q1393.57 1450.39 1400.12 1450.39 Q1401.88 1450.39 1403.66 1450.74 Q1405.47 1451.09 1407.41 1451.78 Z" fill="#000000" fill-rule="evenodd" fill-opacity="1" /><path clip-path="url(#clip850)" d="M1610.27 1451.02 L1632.5 1451.02 L1632.5 1453.01 L1619.95 1485.58 L1615.07 1485.58 L1626.87 1454.96 L1610.27 1454.96 L1610.27 1451.02 Z" fill="#000000" fill-rule="evenodd" fill-opacity="1" /><path clip-path="url(#clip850)" d="M1845.05 1469.17 Q1841.71 1469.17 1839.79 1470.95 Q1837.89 1472.73 1837.89 1475.86 Q1837.89 1478.98 1839.79 1480.77 Q1841.71 1482.55 1845.05 1482.55 Q1848.38 1482.55 1850.3 1480.77 Q1852.22 1478.96 1852.22 1475.86 Q1852.22 1472.73 1850.3 1470.95 Q1848.4 1469.17 1845.05 1469.17 M1840.37 1467.18 Q1837.36 1466.44 1835.67 1464.38 Q1834 1462.32 1834 1459.35 Q1834 1455.21 1836.94 1452.8 Q1839.91 1450.39 1845.05 1450.39 Q1850.21 1450.39 1853.15 1452.8 Q1856.09 1455.21 1856.09 1459.35 Q1856.09 1462.32 1854.4 1464.38 Q1852.73 1466.44 1849.75 1467.18 Q1853.12 1467.96 1855 1470.26 Q1856.9 1472.55 1856.9 1475.86 Q1856.9 1480.88 1853.82 1483.57 Q1850.76 1486.25 1845.05 1486.25 Q1839.33 1486.25 1836.25 1483.57 Q1833.19 1480.88 1833.19 1475.86 Q1833.19 1472.55 1835.09 1470.26 Q1836.99 1467.96 1840.37 1467.18 M1838.66 1459.79 Q1838.66 1462.48 1840.32 1463.98 Q1842.01 1465.49 1845.05 1465.49 Q1848.06 1465.49 1849.75 1463.98 Q1851.46 1462.48 1851.46 1459.79 Q1851.46 1457.11 1849.75 1455.6 Q1848.06 1454.1 1845.05 1454.1 Q1842.01 1454.1 1840.32 1455.6 Q1838.66 1457.11 1838.66 1459.79 Z" fill="#000000" fill-rule="evenodd" fill-opacity="1" /><path clip-path="url(#clip850)" d="M2059.01 1484.86 L2059.01 1480.6 Q2060.77 1481.44 2062.57 1481.88 Q2064.38 1482.32 2066.11 1482.32 Q2070.74 1482.32 2073.17 1479.21 Q2075.63 1476.09 2075.98 1469.75 Q2074.63 1471.74 2072.57 1472.8 Q2070.51 1473.87 2068.01 1473.87 Q2062.83 1473.87 2059.79 1470.74 Q2056.79 1467.59 2056.79 1462.15 Q2056.79 1456.83 2059.93 1453.61 Q2063.08 1450.39 2068.31 1450.39 Q2074.31 1450.39 2077.46 1455 Q2080.63 1459.58 2080.63 1468.33 Q2080.63 1476.51 2076.74 1481.39 Q2072.87 1486.25 2066.32 1486.25 Q2064.56 1486.25 2062.76 1485.9 Q2060.95 1485.56 2059.01 1484.86 M2068.31 1470.21 Q2071.46 1470.21 2073.29 1468.06 Q2075.14 1465.9 2075.14 1462.15 Q2075.14 1458.43 2073.29 1456.27 Q2071.46 1454.1 2068.31 1454.1 Q2065.17 1454.1 2063.31 1456.27 Q2061.48 1458.43 2061.48 1462.15 Q2061.48 1465.9 2063.31 1468.06 Q2065.17 1470.21 2068.31 1470.21 Z" fill="#000000" fill-rule="evenodd" fill-opacity="1" /><path clip-path="url(#clip850)" d="M2267.06 1481.64 L2274.69 1481.64 L2274.69 1455.28 L2266.38 1456.95 L2266.38 1452.69 L2274.65 1451.02 L2279.32 1451.02 L2279.32 1481.64 L2286.96 1481.64 L2286.96 1485.58 L2267.06 1485.58 L2267.06 1481.64 Z" fill="#000000" fill-rule="evenodd" fill-opacity="1" /><path clip-path="url(#clip850)" d="M2306.41 1454.1 Q2302.8 1454.1 2300.97 1457.66 Q2299.16 1461.2 2299.16 1468.33 Q2299.16 1475.44 2300.97 1479.01 Q2302.8 1482.55 2306.41 1482.55 Q2310.04 1482.55 2311.85 1479.01 Q2313.68 1475.44 2313.68 1468.33 Q2313.68 1461.2 2311.85 1457.66 Q2310.04 1454.1 2306.41 1454.1 M2306.41 1450.39 Q2312.22 1450.39 2315.27 1455 Q2318.35 1459.58 2318.35 1468.33 Q2318.35 1477.06 2315.27 1481.67 Q2312.22 1486.25 2306.41 1486.25 Q2300.6 1486.25 2297.52 1481.67 Q2294.46 1477.06 2294.46 1468.33 Q2294.46 1459.58 2297.52 1455 Q2300.6 1450.39 2306.41 1450.39 Z" fill="#000000" fill-rule="evenodd" fill-opacity="1" /><path clip-path="url(#clip850)" d="M1009.56 1520.52 L1015.99 1520.52 L1015.99 1568.04 L1009.56 1568.04 L1009.56 1520.52 Z" fill="#000000" fill-rule="evenodd" fill-opacity="1" /><path clip-path="url(#clip850)" d="M1034.32 1522.27 L1034.32 1532.4 L1046.38 1532.4 L1046.38 1536.95 L1034.32 1536.95 L1034.32 1556.3 Q1034.32 1560.66 1035.5 1561.9 Q1036.71 1563.14 1040.37 1563.14 L1046.38 1563.14 L1046.38 1568.04 L1040.37 1568.04 Q1033.59 1568.04 1031.01 1565.53 Q1028.43 1562.98 1028.43 1556.3 L1028.43 1536.95 L1024.14 1536.95 L1024.14 1532.4 L1028.43 1532.4 L1028.43 1522.27 L1034.32 1522.27 Z" fill="#000000" fill-rule="evenodd" fill-opacity="1" /><path clip-path="url(#clip850)" d="M1084.58 1548.76 L1084.58 1551.62 L1057.65 1551.62 Q1058.03 1557.67 1061.28 1560.85 Q1064.56 1564 1070.38 1564 Q1073.76 1564 1076.91 1563.17 Q1080.09 1562.35 1083.21 1560.69 L1083.21 1566.23 Q1080.06 1567.57 1076.75 1568.27 Q1073.44 1568.97 1070.03 1568.97 Q1061.5 1568.97 1056.51 1564 Q1051.54 1559.04 1051.54 1550.57 Q1051.54 1541.82 1056.25 1536.69 Q1060.99 1531.54 1069.01 1531.54 Q1076.21 1531.54 1080.38 1536.18 Q1084.58 1540.8 1084.58 1548.76 M1078.72 1547.04 Q1078.66 1542.23 1076.02 1539.37 Q1073.41 1536.5 1069.08 1536.5 Q1064.18 1536.5 1061.22 1539.27 Q1058.29 1542.04 1057.84 1547.07 L1078.72 1547.04 Z" fill="#000000" fill-rule="evenodd" fill-opacity="1" /><path clip-path="url(#clip850)" d="M1114.85 1537.87 Q1113.86 1537.3 1112.68 1537.04 Q1111.54 1536.76 1110.14 1536.76 Q1105.17 1536.76 1102.5 1540 Q1099.86 1543.22 1099.86 1549.27 L1099.86 1568.04 L1093.97 1568.04 L1093.97 1532.4 L1099.86 1532.4 L1099.86 1537.93 Q1101.7 1534.69 1104.66 1533.13 Q1107.62 1531.54 1111.86 1531.54 Q1112.46 1531.54 1113.19 1531.63 Q1113.92 1531.7 1114.82 1531.85 L1114.85 1537.87 Z" fill="#000000" fill-rule="evenodd" fill-opacity="1" /><path clip-path="url(#clip850)" d="M1137.19 1550.12 Q1130.09 1550.12 1127.36 1551.75 Q1124.62 1553.37 1124.62 1557.29 Q1124.62 1560.4 1126.66 1562.25 Q1128.73 1564.07 1132.26 1564.07 Q1137.13 1564.07 1140.06 1560.63 Q1143.02 1557.16 1143.02 1551.43 L1143.02 1550.12 L1137.19 1550.12 M1148.87 1547.71 L1148.87 1568.04 L1143.02 1568.04 L1143.02 1562.63 Q1141.01 1565.88 1138.02 1567.44 Q1135.03 1568.97 1130.7 1568.97 Q1125.22 1568.97 1121.98 1565.91 Q1118.76 1562.82 1118.76 1557.67 Q1118.76 1551.65 1122.77 1548.6 Q1126.82 1545.54 1134.8 1545.54 L1143.02 1545.54 L1143.02 1544.97 Q1143.02 1540.93 1140.34 1538.73 Q1137.7 1536.5 1132.89 1536.5 Q1129.84 1536.5 1126.94 1537.23 Q1124.05 1537.97 1121.37 1539.43 L1121.37 1534.02 Q1124.59 1532.78 1127.61 1532.17 Q1130.63 1531.54 1133.5 1531.54 Q1141.23 1531.54 1145.05 1535.55 Q1148.87 1539.56 1148.87 1547.71 Z" fill="#000000" fill-rule="evenodd" fill-opacity="1" /><path clip-path="url(#clip850)" d="M1166.73 1522.27 L1166.73 1532.4 L1178.79 1532.4 L1178.79 1536.95 L1166.73 1536.95 L1166.73 1556.3 Q1166.73 1560.66 1167.91 1561.9 Q1169.12 1563.14 1172.78 1563.14 L1178.79 1563.14 L1178.79 1568.04 L1172.78 1568.04 Q1166 1568.04 1163.42 1565.53 Q1160.84 1562.98 1160.84 1556.3 L1160.84 1536.95 L1156.54 1536.95 L1156.54 1532.4 L1160.84 1532.4 L1160.84 1522.27 L1166.73 1522.27 Z" fill="#000000" fill-rule="evenodd" fill-opacity="1" /><path clip-path="url(#clip850)" d="M1186.49 1532.4 L1192.35 1532.4 L1192.35 1568.04 L1186.49 1568.04 L1186.49 1532.4 M1186.49 1518.52 L1192.35 1518.52 L1192.35 1525.93 L1186.49 1525.93 L1186.49 1518.52 Z" fill="#000000" fill-rule="evenodd" fill-opacity="1" /><path clip-path="url(#clip850)" d="M1218.42 1536.5 Q1213.71 1536.5 1210.97 1540.19 Q1208.23 1543.85 1208.23 1550.25 Q1208.23 1556.65 1210.94 1560.34 Q1213.68 1564 1218.42 1564 Q1223.1 1564 1225.83 1560.31 Q1228.57 1556.62 1228.57 1550.25 Q1228.57 1543.92 1225.83 1540.23 Q1223.1 1536.5 1218.42 1536.5 M1218.42 1531.54 Q1226.06 1531.54 1230.42 1536.5 Q1234.78 1541.47 1234.78 1550.25 Q1234.78 1559 1230.42 1564 Q1226.06 1568.97 1218.42 1568.97 Q1210.75 1568.97 1206.39 1564 Q1202.06 1559 1202.06 1550.25 Q1202.06 1541.47 1206.39 1536.5 Q1210.75 1531.54 1218.42 1531.54 Z" fill="#000000" fill-rule="evenodd" fill-opacity="1" /><path clip-path="url(#clip850)" d="M1274.12 1546.53 L1274.12 1568.04 L1268.26 1568.04 L1268.26 1546.72 Q1268.26 1541.66 1266.29 1539.14 Q1264.31 1536.63 1260.37 1536.63 Q1255.63 1536.63 1252.89 1539.65 Q1250.15 1542.68 1250.15 1547.9 L1250.15 1568.04 L1244.26 1568.04 L1244.26 1532.4 L1250.15 1532.4 L1250.15 1537.93 Q1252.25 1534.72 1255.08 1533.13 Q1257.95 1531.54 1261.67 1531.54 Q1267.82 1531.54 1270.97 1535.36 Q1274.12 1539.14 1274.12 1546.53 Z" fill="#000000" fill-rule="evenodd" fill-opacity="1" /><path clip-path="url(#clip850)" d="M1306.77 1520.52 L1315.43 1520.52 L1336.5 1560.28 L1336.5 1520.52 L1342.74 1520.52 L1342.74 1568.04 L1334.08 1568.04 L1313.01 1528.29 L1313.01 1568.04 L1306.77 1568.04 L1306.77 1520.52 Z" fill="#000000" fill-rule="evenodd" fill-opacity="1" /><path clip-path="url(#clip850)" d="M1354.68 1553.98 L1354.68 1532.4 L1360.53 1532.4 L1360.53 1553.75 Q1360.53 1558.81 1362.51 1561.36 Q1364.48 1563.87 1368.43 1563.87 Q1373.17 1563.87 1375.91 1560.85 Q1378.67 1557.83 1378.67 1552.61 L1378.67 1532.4 L1384.53 1532.4 L1384.53 1568.04 L1378.67 1568.04 L1378.67 1562.57 Q1376.54 1565.82 1373.71 1567.41 Q1370.91 1568.97 1367.18 1568.97 Q1361.04 1568.97 1357.86 1565.15 Q1354.68 1561.33 1354.68 1553.98 M1369.41 1531.54 L1369.41 1531.54 Z" fill="#000000" fill-rule="evenodd" fill-opacity="1" /><path clip-path="url(#clip850)" d="M1424.35 1539.24 Q1426.54 1535.29 1429.6 1533.41 Q1432.66 1531.54 1436.79 1531.54 Q1442.36 1531.54 1445.39 1535.45 Q1448.41 1539.33 1448.41 1546.53 L1448.41 1568.04 L1442.52 1568.04 L1442.52 1546.72 Q1442.52 1541.59 1440.71 1539.11 Q1438.89 1536.63 1435.17 1536.63 Q1430.62 1536.63 1427.98 1539.65 Q1425.34 1542.68 1425.34 1547.9 L1425.34 1568.04 L1419.45 1568.04 L1419.45 1546.72 Q1419.45 1541.56 1417.63 1539.11 Q1415.82 1536.63 1412.03 1536.63 Q1407.54 1536.63 1404.9 1539.68 Q1402.26 1542.71 1402.26 1547.9 L1402.26 1568.04 L1396.37 1568.04 L1396.37 1532.4 L1402.26 1532.4 L1402.26 1537.93 Q1404.26 1534.66 1407.07 1533.1 Q1409.87 1531.54 1413.72 1531.54 Q1417.6 1531.54 1420.31 1533.51 Q1423.04 1535.48 1424.35 1539.24 Z" fill="#000000" fill-rule="evenodd" fill-opacity="1" /><path clip-path="url(#clip850)" d="M1485.68 1550.25 Q1485.68 1543.79 1483.01 1540.13 Q1480.37 1536.44 1475.72 1536.44 Q1471.07 1536.44 1468.4 1540.13 Q1465.76 1543.79 1465.76 1550.25 Q1465.76 1556.71 1468.4 1560.4 Q1471.07 1564.07 1475.72 1564.07 Q1480.37 1564.07 1483.01 1560.4 Q1485.68 1556.71 1485.68 1550.25 M1465.76 1537.81 Q1467.6 1534.62 1470.4 1533.1 Q1473.24 1531.54 1477.15 1531.54 Q1483.65 1531.54 1487.69 1536.69 Q1491.76 1541.85 1491.76 1550.25 Q1491.76 1558.65 1487.69 1563.81 Q1483.65 1568.97 1477.15 1568.97 Q1473.24 1568.97 1470.4 1567.44 Q1467.6 1565.88 1465.76 1562.7 L1465.76 1568.04 L1459.87 1568.04 L1459.87 1518.52 L1465.76 1518.52 L1465.76 1537.81 Z" fill="#000000" fill-rule="evenodd" fill-opacity="1" /><path clip-path="url(#clip850)" d="M1531.96 1548.76 L1531.96 1551.62 L1505.03 1551.62 Q1505.42 1557.67 1508.66 1560.85 Q1511.94 1564 1517.77 1564 Q1521.14 1564 1524.29 1563.17 Q1527.47 1562.35 1530.59 1560.69 L1530.59 1566.23 Q1527.44 1567.57 1524.13 1568.27 Q1520.82 1568.97 1517.42 1568.97 Q1508.89 1568.97 1503.89 1564 Q1498.92 1559.04 1498.92 1550.57 Q1498.92 1541.82 1503.63 1536.69 Q1508.38 1531.54 1516.4 1531.54 Q1523.59 1531.54 1527.76 1536.18 Q1531.96 1540.8 1531.96 1548.76 M1526.1 1547.04 Q1526.04 1542.23 1523.4 1539.37 Q1520.79 1536.5 1516.46 1536.5 Q1511.56 1536.5 1508.6 1539.27 Q1505.67 1542.04 1505.22 1547.07 L1526.1 1547.04 Z" fill="#000000" fill-rule="evenodd" fill-opacity="1" /><path clip-path="url(#clip850)" d="M1562.23 1537.87 Q1561.24 1537.3 1560.07 1537.04 Q1558.92 1536.76 1557.52 1536.76 Q1552.55 1536.76 1549.88 1540 Q1547.24 1543.22 1547.24 1549.27 L1547.24 1568.04 L1541.35 1568.04 L1541.35 1532.4 L1547.24 1532.4 L1547.24 1537.93 Q1549.08 1534.69 1552.04 1533.13 Q1555 1531.54 1559.24 1531.54 Q1559.84 1531.54 1560.57 1531.63 Q1561.31 1531.7 1562.2 1531.85 L1562.23 1537.87 Z" fill="#000000" fill-rule="evenodd" fill-opacity="1" /><polyline clip-path="url(#clip852)" style="stroke:#000000; stroke-linecap:butt; stroke-linejoin:round; stroke-width:2; stroke-opacity:0.1; fill:none" points="
  219.033,1301.62 2352.76,1301.62 
  "/>
<polyline clip-path="url(#clip852)" style="stroke:#000000; stroke-linecap:butt; stroke-linejoin:round; stroke-width:2; stroke-opacity:0.1; fill:none" points="
  219.033,888.521 2352.76,888.521 
  "/>
<polyline clip-path="url(#clip852)" style="stroke:#000000; stroke-linecap:butt; stroke-linejoin:round; stroke-width:2; stroke-opacity:0.1; fill:none" points="
  219.033,475.423 2352.76,475.423 
  "/>
<polyline clip-path="url(#clip852)" style="stroke:#000000; stroke-linecap:butt; stroke-linejoin:round; stroke-width:2; stroke-opacity:0.1; fill:none" points="
  219.033,62.3247 2352.76,62.3247 
  "/>
<polyline clip-path="url(#clip850)" style="stroke:#000000; stroke-linecap:butt; stroke-linejoin:round; stroke-width:4; stroke-opacity:1; fill:none" points="
  219.033,1423.18 219.033,47.2441 
  "/>
<polyline clip-path="url(#clip850)" style="stroke:#000000; stroke-linecap:butt; stroke-linejoin:round; stroke-width:4; stroke-opacity:1; fill:none" points="
  219.033,1301.62 237.931,1301.62 
  "/>
<polyline clip-path="url(#clip850)" style="stroke:#000000; stroke-linecap:butt; stroke-linejoin:round; stroke-width:4; stroke-opacity:1; fill:none" points="
  219.033,888.521 237.931,888.521 
  "/>
<polyline clip-path="url(#clip850)" style="stroke:#000000; stroke-linecap:butt; stroke-linejoin:round; stroke-width:4; stroke-opacity:1; fill:none" points="
  219.033,475.423 237.931,475.423 
  "/>
<polyline clip-path="url(#clip850)" style="stroke:#000000; stroke-linecap:butt; stroke-linejoin:round; stroke-width:4; stroke-opacity:1; fill:none" points="
  219.033,62.3247 237.931,62.3247 
  "/>
<path clip-path="url(#clip850)" d="M116.668 1314.96 L124.306 1314.96 L124.306 1288.6 L115.996 1290.26 L115.996 1286.01 L124.26 1284.34 L128.936 1284.34 L128.936 1314.96 L136.575 1314.96 L136.575 1318.9 L116.668 1318.9 L116.668 1314.96 Z" fill="#000000" fill-rule="evenodd" fill-opacity="1" /><path clip-path="url(#clip850)" d="M146.019 1313.02 L150.903 1313.02 L150.903 1318.9 L146.019 1318.9 L146.019 1313.02 Z" fill="#000000" fill-rule="evenodd" fill-opacity="1" /><path clip-path="url(#clip850)" d="M171.089 1287.42 Q167.477 1287.42 165.649 1290.98 Q163.843 1294.52 163.843 1301.65 Q163.843 1308.76 165.649 1312.32 Q167.477 1315.87 171.089 1315.87 Q174.723 1315.87 176.528 1312.32 Q178.357 1308.76 178.357 1301.65 Q178.357 1294.52 176.528 1290.98 Q174.723 1287.42 171.089 1287.42 M171.089 1283.71 Q176.899 1283.71 179.954 1288.32 Q183.033 1292.9 183.033 1301.65 Q183.033 1310.38 179.954 1314.99 Q176.899 1319.57 171.089 1319.57 Q165.278 1319.57 162.2 1314.99 Q159.144 1310.38 159.144 1301.65 Q159.144 1292.9 162.2 1288.32 Q165.278 1283.71 171.089 1283.71 Z" fill="#000000" fill-rule="evenodd" fill-opacity="1" /><path clip-path="url(#clip850)" d="M117.663 901.865 L125.302 901.865 L125.302 875.5 L116.992 877.167 L116.992 872.907 L125.255 871.241 L129.931 871.241 L129.931 901.865 L137.57 901.865 L137.57 905.801 L117.663 905.801 L117.663 901.865 Z" fill="#000000" fill-rule="evenodd" fill-opacity="1" /><path clip-path="url(#clip850)" d="M147.015 899.921 L151.899 899.921 L151.899 905.801 L147.015 905.801 L147.015 899.921 Z" fill="#000000" fill-rule="evenodd" fill-opacity="1" /><path clip-path="url(#clip850)" d="M162.13 871.241 L180.487 871.241 L180.487 875.176 L166.413 875.176 L166.413 883.648 Q167.431 883.301 168.45 883.139 Q169.468 882.954 170.487 882.954 Q176.274 882.954 179.653 886.125 Q183.033 889.296 183.033 894.713 Q183.033 900.291 179.561 903.393 Q176.089 906.472 169.769 906.472 Q167.593 906.472 165.325 906.102 Q163.079 905.731 160.672 904.99 L160.672 900.291 Q162.755 901.426 164.977 901.981 Q167.2 902.537 169.677 902.537 Q173.681 902.537 176.019 900.43 Q178.357 898.324 178.357 894.713 Q178.357 891.102 176.019 888.995 Q173.681 886.889 169.677 886.889 Q167.802 886.889 165.927 887.305 Q164.075 887.722 162.13 888.602 L162.13 871.241 Z" fill="#000000" fill-rule="evenodd" fill-opacity="1" /><path clip-path="url(#clip850)" d="M119.885 488.767 L136.204 488.767 L136.204 492.703 L114.26 492.703 L114.26 488.767 Q116.922 486.013 121.505 481.383 Q126.112 476.731 127.292 475.388 Q129.538 472.865 130.417 471.129 Q131.32 469.369 131.32 467.68 Q131.32 464.925 129.376 463.189 Q127.455 461.453 124.353 461.453 Q122.154 461.453 119.7 462.217 Q117.269 462.981 114.492 464.532 L114.492 459.809 Q117.316 458.675 119.769 458.096 Q122.223 457.518 124.26 457.518 Q129.63 457.518 132.825 460.203 Q136.019 462.888 136.019 467.379 Q136.019 469.508 135.209 471.43 Q134.422 473.328 132.316 475.92 Q131.737 476.592 128.635 479.809 Q125.533 483.004 119.885 488.767 Z" fill="#000000" fill-rule="evenodd" fill-opacity="1" /><path clip-path="url(#clip850)" d="M146.019 486.823 L150.903 486.823 L150.903 492.703 L146.019 492.703 L146.019 486.823 Z" fill="#000000" fill-rule="evenodd" fill-opacity="1" /><path clip-path="url(#clip850)" d="M171.089 461.221 Q167.477 461.221 165.649 464.786 Q163.843 468.328 163.843 475.457 Q163.843 482.564 165.649 486.129 Q167.477 489.67 171.089 489.67 Q174.723 489.67 176.528 486.129 Q178.357 482.564 178.357 475.457 Q178.357 468.328 176.528 464.786 Q174.723 461.221 171.089 461.221 M171.089 457.518 Q176.899 457.518 179.954 462.124 Q183.033 466.707 183.033 475.457 Q183.033 484.184 179.954 488.791 Q176.899 493.374 171.089 493.374 Q165.278 493.374 162.2 488.791 Q159.144 484.184 159.144 475.457 Q159.144 466.707 162.2 462.124 Q165.278 457.518 171.089 457.518 Z" fill="#000000" fill-rule="evenodd" fill-opacity="1" /><path clip-path="url(#clip850)" d="M120.88 75.6695 L137.2 75.6695 L137.2 79.6047 L115.256 79.6047 L115.256 75.6695 Q117.918 72.9149 122.501 68.2853 Q127.107 63.6325 128.288 62.2899 Q130.533 59.7668 131.413 58.0307 Q132.316 56.2715 132.316 54.5816 Q132.316 51.827 130.371 50.0909 Q128.45 48.3548 125.348 48.3548 Q123.149 48.3548 120.695 49.1187 Q118.265 49.8826 115.487 51.4335 L115.487 46.7113 Q118.311 45.5771 120.765 44.9984 Q123.218 44.4197 125.255 44.4197 Q130.626 44.4197 133.82 47.1048 Q137.015 49.79 137.015 54.2807 Q137.015 56.4103 136.204 58.3316 Q135.417 60.2298 133.311 62.8223 Q132.732 63.4936 129.63 66.7112 Q126.529 69.9056 120.88 75.6695 Z" fill="#000000" fill-rule="evenodd" fill-opacity="1" /><path clip-path="url(#clip850)" d="M147.015 73.7251 L151.899 73.7251 L151.899 79.6047 L147.015 79.6047 L147.015 73.7251 Z" fill="#000000" fill-rule="evenodd" fill-opacity="1" /><path clip-path="url(#clip850)" d="M162.13 45.0447 L180.487 45.0447 L180.487 48.9798 L166.413 48.9798 L166.413 57.452 Q167.431 57.1048 168.45 56.9427 Q169.468 56.7576 170.487 56.7576 Q176.274 56.7576 179.653 59.9288 Q183.033 63.1001 183.033 68.5168 Q183.033 74.0954 179.561 77.1973 Q176.089 80.276 169.769 80.276 Q167.593 80.276 165.325 79.9056 Q163.079 79.5352 160.672 78.7945 L160.672 74.0954 Q162.755 75.2297 164.977 75.7852 Q167.2 76.3408 169.677 76.3408 Q173.681 76.3408 176.019 74.2343 Q178.357 72.1278 178.357 68.5168 Q178.357 64.9057 176.019 62.7992 Q173.681 60.6927 169.677 60.6927 Q167.802 60.6927 165.927 61.1094 Q164.075 61.5261 162.13 62.4057 L162.13 45.0447 Z" fill="#000000" fill-rule="evenodd" fill-opacity="1" /><path clip-path="url(#clip850)" d="M20.8447 1070.92 Q20.8447 1077.93 26.0645 1082.06 Q31.2844 1086.17 40.2919 1086.17 Q49.2675 1086.17 54.4874 1082.06 Q59.7073 1077.93 59.7073 1070.92 Q59.7073 1063.92 54.4874 1059.85 Q49.2675 1055.74 40.2919 1055.74 Q31.2844 1055.74 26.0645 1059.85 Q20.8447 1063.92 20.8447 1070.92 M15.6248 1070.92 Q15.6248 1060.93 22.3406 1054.95 Q29.0246 1048.96 40.2919 1048.96 Q51.5274 1048.96 58.2432 1054.95 Q64.9272 1060.93 64.9272 1070.92 Q64.9272 1080.95 58.2432 1086.97 Q51.5592 1092.95 40.2919 1092.95 Q29.0246 1092.95 22.3406 1086.97 Q15.6248 1080.95 15.6248 1070.92 Z" fill="#000000" fill-rule="evenodd" fill-opacity="1" /><path clip-path="url(#clip850)" d="M29.4065 1016.43 L34.9447 1016.43 Q33.6716 1018.92 33.035 1021.59 Q32.3984 1024.26 32.3984 1027.13 Q32.3984 1031.49 33.7352 1033.68 Q35.072 1035.85 37.7456 1035.85 Q39.7826 1035.85 40.9603 1034.29 Q42.1061 1032.73 43.1565 1028.02 L43.6021 1026.01 Q44.9389 1019.77 47.3897 1017.17 Q49.8086 1014.52 54.1691 1014.52 Q59.1344 1014.52 62.0308 1018.47 Q64.9272 1022.38 64.9272 1029.26 Q64.9272 1032.12 64.3543 1035.24 Q63.8132 1038.33 62.6992 1041.77 L56.6518 1041.77 Q58.3387 1038.52 59.198 1035.37 Q60.0256 1032.22 60.0256 1029.13 Q60.0256 1024.99 58.6251 1022.77 Q57.1929 1020.54 54.6147 1020.54 Q52.2276 1020.54 50.9545 1022.16 Q49.6813 1023.75 48.5037 1029.2 L48.0262 1031.23 Q46.8804 1036.68 44.5251 1039.09 Q42.138 1041.51 38.0002 1041.51 Q32.9713 1041.51 30.2341 1037.95 Q27.4968 1034.38 27.4968 1027.83 Q27.4968 1024.58 27.9743 1021.72 Q28.4517 1018.85 29.4065 1016.43 Z" fill="#000000" fill-rule="evenodd" fill-opacity="1" /><path clip-path="url(#clip850)" d="M35.1993 977.443 Q31.2526 975.247 29.3747 972.191 Q27.4968 969.136 27.4968 964.998 Q27.4968 959.428 31.4117 956.404 Q35.2948 953.381 42.4881 953.381 L64.0042 953.381 L64.0042 959.269 L42.679 959.269 Q37.5546 959.269 35.072 961.083 Q32.5894 962.897 32.5894 966.621 Q32.5894 971.173 35.6131 973.815 Q38.6368 976.456 43.8567 976.456 L64.0042 976.456 L64.0042 982.345 L42.679 982.345 Q37.5228 982.345 35.072 984.159 Q32.5894 985.973 32.5894 989.761 Q32.5894 994.248 35.6449 996.89 Q38.6686 999.532 43.8567 999.532 L64.0042 999.532 L64.0042 1005.42 L28.3562 1005.42 L28.3562 999.532 L33.8944 999.532 Q30.616 997.527 29.0564 994.726 Q27.4968 991.925 27.4968 988.074 Q27.4968 984.191 29.4702 981.485 Q31.4436 978.748 35.1993 977.443 Z" fill="#000000" fill-rule="evenodd" fill-opacity="1" /><path clip-path="url(#clip850)" d="M32.4621 927.886 Q32.4621 932.597 36.1542 935.334 Q39.8145 938.071 46.212 938.071 Q52.6095 938.071 56.3017 935.366 Q59.9619 932.628 59.9619 927.886 Q59.9619 923.207 56.2698 920.47 Q52.5777 917.733 46.212 917.733 Q39.8781 917.733 36.186 920.47 Q32.4621 923.207 32.4621 927.886 M27.4968 927.886 Q27.4968 920.247 32.4621 915.887 Q37.4273 911.526 46.212 911.526 Q54.9649 911.526 59.9619 915.887 Q64.9272 920.247 64.9272 927.886 Q64.9272 935.557 59.9619 939.917 Q54.9649 944.246 46.212 944.246 Q37.4273 944.246 32.4621 939.917 Q27.4968 935.557 27.4968 927.886 Z" fill="#000000" fill-rule="evenodd" fill-opacity="1" /><path clip-path="url(#clip850)" d="M18.2347 896.026 L28.3562 896.026 L28.3562 883.963 L32.9077 883.963 L32.9077 896.026 L52.2594 896.026 Q56.6199 896.026 57.8613 894.848 Q59.1026 893.638 59.1026 889.978 L59.1026 883.963 L64.0042 883.963 L64.0042 889.978 Q64.0042 896.758 61.4897 899.336 Q58.9434 901.914 52.2594 901.914 L32.9077 901.914 L32.9077 906.211 L28.3562 906.211 L28.3562 901.914 L18.2347 901.914 L18.2347 896.026 Z" fill="#000000" fill-rule="evenodd" fill-opacity="1" /><path clip-path="url(#clip850)" d="M28.3562 876.26 L28.3562 870.404 L64.0042 870.404 L64.0042 876.26 L28.3562 876.26 M14.479 876.26 L14.479 870.404 L21.895 870.404 L21.895 876.26 L14.479 876.26 Z" fill="#000000" fill-rule="evenodd" fill-opacity="1" /><path clip-path="url(#clip850)" d="M29.7248 832.496 L35.1993 832.496 Q33.8307 834.979 33.1623 837.493 Q32.4621 839.976 32.4621 842.522 Q32.4621 848.219 36.0905 851.37 Q39.6872 854.521 46.212 854.521 Q52.7369 854.521 56.3653 851.37 Q59.9619 848.219 59.9619 842.522 Q59.9619 839.976 59.2935 837.493 Q58.5933 834.979 57.2247 832.496 L62.6355 832.496 Q63.7814 834.947 64.3543 837.588 Q64.9272 840.198 64.9272 843.158 Q64.9272 851.211 59.8664 855.954 Q54.8057 860.696 46.212 860.696 Q37.491 860.696 32.4939 855.922 Q27.4968 851.116 27.4968 842.776 Q27.4968 840.071 28.0697 837.493 Q28.6108 834.915 29.7248 832.496 Z" fill="#000000" fill-rule="evenodd" fill-opacity="1" /><path clip-path="url(#clip850)" d="M29.7248 775.937 L35.1993 775.937 Q33.8307 778.419 33.1623 780.934 Q32.4621 783.416 32.4621 785.963 Q32.4621 791.66 36.0905 794.811 Q39.6872 797.962 46.212 797.962 Q52.7369 797.962 56.3653 794.811 Q59.9619 791.66 59.9619 785.963 Q59.9619 783.416 59.2935 780.934 Q58.5933 778.419 57.2247 775.937 L62.6355 775.937 Q63.7814 778.387 64.3543 781.029 Q64.9272 783.639 64.9272 786.599 Q64.9272 794.652 59.8664 799.394 Q54.8057 804.137 46.212 804.137 Q37.491 804.137 32.4939 799.362 Q27.4968 794.556 27.4968 786.217 Q27.4968 783.512 28.0697 780.934 Q28.6108 778.356 29.7248 775.937 Z" fill="#000000" fill-rule="evenodd" fill-opacity="1" /><path clip-path="url(#clip850)" d="M32.4621 751.938 Q32.4621 756.648 36.1542 759.386 Q39.8145 762.123 46.212 762.123 Q52.6095 762.123 56.3017 759.418 Q59.9619 756.68 59.9619 751.938 Q59.9619 747.259 56.2698 744.522 Q52.5777 741.785 46.212 741.785 Q39.8781 741.785 36.186 744.522 Q32.4621 747.259 32.4621 751.938 M27.4968 751.938 Q27.4968 744.299 32.4621 739.939 Q37.4273 735.578 46.212 735.578 Q54.9649 735.578 59.9619 739.939 Q64.9272 744.299 64.9272 751.938 Q64.9272 759.609 59.9619 763.969 Q54.9649 768.298 46.212 768.298 Q37.4273 768.298 32.4621 763.969 Q27.4968 759.609 27.4968 751.938 Z" fill="#000000" fill-rule="evenodd" fill-opacity="1" /><path clip-path="url(#clip850)" d="M44.7161 695.379 L47.5806 695.379 L47.5806 722.305 Q53.6281 721.924 56.8109 718.677 Q59.9619 715.399 59.9619 709.574 Q59.9619 706.2 59.1344 703.049 Q58.3069 699.866 56.6518 696.747 L62.1899 696.747 Q63.5267 699.898 64.227 703.208 Q64.9272 706.519 64.9272 709.924 Q64.9272 718.454 59.9619 723.451 Q54.9967 728.417 46.5303 728.417 Q37.7774 728.417 32.6531 723.706 Q27.4968 718.964 27.4968 710.943 Q27.4968 703.749 32.1438 699.58 Q36.7589 695.379 44.7161 695.379 M42.9973 701.235 Q38.1912 701.299 35.3266 703.94 Q32.4621 706.55 32.4621 710.879 Q32.4621 715.781 35.2312 718.741 Q38.0002 721.669 43.0292 722.115 L42.9973 701.235 Z" fill="#000000" fill-rule="evenodd" fill-opacity="1" /><path clip-path="url(#clip850)" d="M14.479 667.72 L19.3487 667.72 L19.3487 673.321 Q19.3487 676.472 20.6219 677.714 Q21.895 678.923 25.2052 678.923 L28.3562 678.923 L28.3562 669.279 L32.9077 669.279 L32.9077 678.923 L64.0042 678.923 L64.0042 684.811 L32.9077 684.811 L32.9077 690.413 L28.3562 690.413 L28.3562 684.811 L25.8736 684.811 Q19.9216 684.811 17.2162 682.042 Q14.479 679.273 14.479 673.258 L14.479 667.72 Z" fill="#000000" fill-rule="evenodd" fill-opacity="1" /><path clip-path="url(#clip850)" d="M14.479 644.771 L19.3487 644.771 L19.3487 650.373 Q19.3487 653.524 20.6219 654.765 Q21.895 655.975 25.2052 655.975 L28.3562 655.975 L28.3562 646.331 L32.9077 646.331 L32.9077 655.975 L64.0042 655.975 L64.0042 661.863 L32.9077 661.863 L32.9077 667.465 L28.3562 667.465 L28.3562 661.863 L25.8736 661.863 Q19.9216 661.863 17.2162 659.094 Q14.479 656.325 14.479 650.309 L14.479 644.771 Z" fill="#000000" fill-rule="evenodd" fill-opacity="1" /><path clip-path="url(#clip850)" d="M28.3562 639.87 L28.3562 634.013 L64.0042 634.013 L64.0042 639.87 L28.3562 639.87 M14.479 639.87 L14.479 634.013 L21.895 634.013 L21.895 639.87 L14.479 639.87 Z" fill="#000000" fill-rule="evenodd" fill-opacity="1" /><path clip-path="url(#clip850)" d="M29.7248 596.105 L35.1993 596.105 Q33.8307 598.588 33.1623 601.102 Q32.4621 603.585 32.4621 606.131 Q32.4621 611.829 36.0905 614.98 Q39.6872 618.131 46.212 618.131 Q52.7369 618.131 56.3653 614.98 Q59.9619 611.829 59.9619 606.131 Q59.9619 603.585 59.2935 601.102 Q58.5933 598.588 57.2247 596.105 L62.6355 596.105 Q63.7814 598.556 64.3543 601.198 Q64.9272 603.808 64.9272 606.768 Q64.9272 614.821 59.8664 619.563 Q54.8057 624.305 46.212 624.305 Q37.491 624.305 32.4939 619.531 Q27.4968 614.725 27.4968 606.386 Q27.4968 603.681 28.0697 601.102 Q28.6108 598.524 29.7248 596.105 Z" fill="#000000" fill-rule="evenodd" fill-opacity="1" /><path clip-path="url(#clip850)" d="M28.3562 585.92 L28.3562 580.064 L64.0042 580.064 L64.0042 585.92 L28.3562 585.92 M14.479 585.92 L14.479 580.064 L21.895 580.064 L21.895 585.92 L14.479 585.92 Z" fill="#000000" fill-rule="evenodd" fill-opacity="1" /><path clip-path="url(#clip850)" d="M44.7161 537.318 L47.5806 537.318 L47.5806 564.245 Q53.6281 563.863 56.8109 560.617 Q59.9619 557.338 59.9619 551.514 Q59.9619 548.14 59.1344 544.989 Q58.3069 541.806 56.6518 538.687 L62.1899 538.687 Q63.5267 541.838 64.227 545.148 Q64.9272 548.458 64.9272 551.864 Q64.9272 560.394 59.9619 565.391 Q54.9967 570.356 46.5303 570.356 Q37.7774 570.356 32.6531 565.645 Q27.4968 560.903 27.4968 552.882 Q27.4968 545.689 32.1438 541.519 Q36.7589 537.318 44.7161 537.318 M42.9973 543.175 Q38.1912 543.238 35.3266 545.88 Q32.4621 548.49 32.4621 552.819 Q32.4621 557.72 35.2312 560.68 Q38.0002 563.608 43.0292 564.054 L42.9973 543.175 Z" fill="#000000" fill-rule="evenodd" fill-opacity="1" /><path clip-path="url(#clip850)" d="M42.4881 498.073 L64.0042 498.073 L64.0042 503.93 L42.679 503.93 Q37.6183 503.93 35.1038 505.903 Q32.5894 507.877 32.5894 511.823 Q32.5894 516.566 35.6131 519.303 Q38.6368 522.04 43.8567 522.04 L64.0042 522.04 L64.0042 527.929 L28.3562 527.929 L28.3562 522.04 L33.8944 522.04 Q30.6797 519.94 29.0883 517.107 Q27.4968 514.242 27.4968 510.518 Q27.4968 504.376 31.3163 501.225 Q35.1038 498.073 42.4881 498.073 Z" fill="#000000" fill-rule="evenodd" fill-opacity="1" /><path clip-path="url(#clip850)" d="M18.2347 480.6 L28.3562 480.6 L28.3562 468.537 L32.9077 468.537 L32.9077 480.6 L52.2594 480.6 Q56.6199 480.6 57.8613 479.422 Q59.1026 478.212 59.1026 474.552 L59.1026 468.537 L64.0042 468.537 L64.0042 474.552 Q64.0042 481.332 61.4897 483.91 Q58.9434 486.488 52.2594 486.488 L32.9077 486.488 L32.9077 490.785 L28.3562 490.785 L28.3562 486.488 L18.2347 486.488 L18.2347 480.6 Z" fill="#000000" fill-rule="evenodd" fill-opacity="1" /><path clip-path="url(#clip850)" d="M14.479 440.655 L14.479 427.16 L19.0304 427.16 L19.0304 434.798 L68.0464 434.798 L68.0464 427.16 L72.5979 427.16 L72.5979 440.655 L14.479 440.655 Z" fill="#000000" fill-rule="evenodd" fill-opacity="1" /><path clip-path="url(#clip850)" d="M43.5384 417.643 L43.5384 400.487 L48.7583 400.487 L48.7583 417.643 L43.5384 417.643 Z" fill="#000000" fill-rule="evenodd" fill-opacity="1" /><path clip-path="url(#clip850)" d="M14.479 377.475 L72.5979 377.475 L72.5979 390.97 L68.0464 390.97 L68.0464 383.363 L19.0304 383.363 L19.0304 390.97 L14.479 390.97 L14.479 377.475 Z" fill="#000000" fill-rule="evenodd" fill-opacity="1" /><polyline clip-path="url(#clip852)" style="stroke:#009af9; stroke-linecap:butt; stroke-linejoin:round; stroke-width:4; stroke-opacity:1; fill:none" points="
  279.421,378.736 503.082,86.1857 726.743,731.319 950.403,952.277 1174.06,1087.35 1397.72,1142.66 1621.39,1212.85 1845.05,1260 2068.71,1287.38 2292.37,1320.25 
  
  "/>
<path clip-path="url(#clip852)" d="M279.421 362.736 L275.661 373.552 L264.205 373.792 L273.341 380.72 L270.013 391.68 L279.421 385.136 L288.829 391.68 L285.501 380.72 L294.637 373.792 L283.181 373.552 L279.421 362.736 Z" fill="#009af9" fill-rule="evenodd" fill-opacity="1" stroke="#000000" stroke-opacity="1" stroke-width="3.2"/>
<path clip-path="url(#clip852)" d="M503.082 70.1857 L499.322 81.0017 L487.866 81.2417 L497.002 88.1697 L493.674 99.1297 L503.082 92.5857 L512.49 99.1297 L509.162 88.1697 L518.298 81.2417 L506.842 81.0017 L503.082 70.1857 Z" fill="#009af9" fill-rule="evenodd" fill-opacity="1" stroke="#000000" stroke-opacity="1" stroke-width="3.2"/>
<path clip-path="url(#clip852)" d="M726.743 715.319 L722.983 726.135 L711.527 726.375 L720.663 733.303 L717.335 744.263 L726.743 737.719 L736.151 744.263 L732.823 733.303 L741.959 726.375 L730.503 726.135 L726.743 715.319 Z" fill="#009af9" fill-rule="evenodd" fill-opacity="1" stroke="#000000" stroke-opacity="1" stroke-width="3.2"/>
<path clip-path="url(#clip852)" d="M950.403 936.277 L946.643 947.093 L935.187 947.333 L944.323 954.261 L940.995 965.221 L950.403 958.677 L959.811 965.221 L956.483 954.261 L965.619 947.333 L954.163 947.093 L950.403 936.277 Z" fill="#009af9" fill-rule="evenodd" fill-opacity="1" stroke="#000000" stroke-opacity="1" stroke-width="3.2"/>
<path clip-path="url(#clip852)" d="M1174.06 1071.35 L1170.3 1082.17 L1158.85 1082.41 L1167.98 1089.34 L1164.66 1100.3 L1174.06 1093.75 L1183.47 1100.3 L1180.14 1089.34 L1189.28 1082.41 L1177.82 1082.17 L1174.06 1071.35 Z" fill="#009af9" fill-rule="evenodd" fill-opacity="1" stroke="#000000" stroke-opacity="1" stroke-width="3.2"/>
<path clip-path="url(#clip852)" d="M1397.72 1126.66 L1393.96 1137.48 L1382.51 1137.72 L1391.64 1144.64 L1388.32 1155.6 L1397.72 1149.06 L1407.13 1155.6 L1403.8 1144.64 L1412.94 1137.72 L1401.48 1137.48 L1397.72 1126.66 Z" fill="#009af9" fill-rule="evenodd" fill-opacity="1" stroke="#000000" stroke-opacity="1" stroke-width="3.2"/>
<path clip-path="url(#clip852)" d="M1621.39 1196.85 L1617.63 1207.67 L1606.17 1207.91 L1615.31 1214.83 L1611.98 1225.79 L1621.39 1219.25 L1630.79 1225.79 L1627.47 1214.83 L1636.6 1207.91 L1625.15 1207.67 L1621.39 1196.85 Z" fill="#009af9" fill-rule="evenodd" fill-opacity="1" stroke="#000000" stroke-opacity="1" stroke-width="3.2"/>
<path clip-path="url(#clip852)" d="M1845.05 1244 L1841.29 1254.82 L1829.83 1255.06 L1838.97 1261.98 L1835.64 1272.94 L1845.05 1266.4 L1854.45 1272.94 L1851.13 1261.98 L1860.26 1255.06 L1848.81 1254.82 L1845.05 1244 Z" fill="#009af9" fill-rule="evenodd" fill-opacity="1" stroke="#000000" stroke-opacity="1" stroke-width="3.2"/>
<path clip-path="url(#clip852)" d="M2068.71 1271.38 L2064.95 1282.19 L2053.49 1282.43 L2062.63 1289.36 L2059.3 1300.32 L2068.71 1293.78 L2078.11 1300.32 L2074.79 1289.36 L2083.92 1282.43 L2072.47 1282.19 L2068.71 1271.38 Z" fill="#009af9" fill-rule="evenodd" fill-opacity="1" stroke="#000000" stroke-opacity="1" stroke-width="3.2"/>
<path clip-path="url(#clip852)" d="M2292.37 1304.25 L2288.61 1315.07 L2277.15 1315.31 L2286.29 1322.23 L2282.96 1333.19 L2292.37 1326.65 L2301.78 1333.19 L2298.45 1322.23 L2307.58 1315.31 L2296.13 1315.07 L2292.37 1304.25 Z" fill="#009af9" fill-rule="evenodd" fill-opacity="1" stroke="#000000" stroke-opacity="1" stroke-width="3.2"/>
<polyline clip-path="url(#clip852)" style="stroke:#e26f46; stroke-linecap:butt; stroke-linejoin:round; stroke-width:4; stroke-opacity:1; fill:none" points="
  -1914.69,1384.24 4486.48,1384.24 
  "/>
<path clip-path="url(#clip850)" d="
M1676.52 248.629 L2281.63 248.629 L2281.63 93.1086 L1676.52 93.1086  Z
  " fill="#ffffff" fill-rule="evenodd" fill-opacity="1"/>
<polyline clip-path="url(#clip850)" style="stroke:#000000; stroke-linecap:butt; stroke-linejoin:round; stroke-width:4; stroke-opacity:1; fill:none" points="
  1676.52,248.629 2281.63,248.629 2281.63,93.1086 1676.52,93.1086 1676.52,248.629 
  "/>
<polyline clip-path="url(#clip850)" style="stroke:#009af9; stroke-linecap:butt; stroke-linejoin:round; stroke-width:4; stroke-opacity:1; fill:none" points="
  1700.23,144.949 1842.48,144.949 
  "/>
<path clip-path="url(#clip850)" d="M1771.35 119.349 L1765.34 136.654 L1747.01 137.038 L1761.63 148.123 L1756.3 165.659 L1771.35 155.189 L1786.41 165.659 L1781.08 148.123 L1795.7 137.038 L1777.37 136.654 L1771.35 119.349 Z" fill="#009af9" fill-rule="evenodd" fill-opacity="1" stroke="#000000" stroke-opacity="1" stroke-width="5.12"/>
<path clip-path="url(#clip850)" d="M1866.19 127.669 L1888.04 127.669 L1888.04 131.604 L1870.86 131.604 L1870.86 141.835 L1887.32 141.835 L1887.32 145.77 L1870.86 145.77 L1870.86 158.293 L1888.45 158.293 L1888.45 162.229 L1866.19 162.229 L1866.19 127.669 Z" fill="#000000" fill-rule="evenodd" fill-opacity="1" /><path clip-path="url(#clip850)" d="M1917.5 146.581 L1917.5 162.229 L1913.25 162.229 L1913.25 146.719 Q1913.25 143.039 1911.81 141.21 Q1910.37 139.382 1907.5 139.382 Q1904.06 139.382 1902.06 141.581 Q1900.07 143.78 1900.07 147.576 L1900.07 162.229 L1895.79 162.229 L1895.79 136.303 L1900.07 136.303 L1900.07 140.331 Q1901.6 137.993 1903.66 136.835 Q1905.75 135.678 1908.45 135.678 Q1912.92 135.678 1915.21 138.456 Q1917.5 141.21 1917.5 146.581 Z" fill="#000000" fill-rule="evenodd" fill-opacity="1" /><path clip-path="url(#clip850)" d="M1942.53 137.067 L1942.53 141.094 Q1940.72 140.169 1938.78 139.706 Q1936.83 139.243 1934.75 139.243 Q1931.58 139.243 1929.98 140.215 Q1928.41 141.187 1928.41 143.131 Q1928.41 144.613 1929.54 145.469 Q1930.68 146.303 1934.1 147.067 L1935.56 147.391 Q1940.1 148.363 1942 150.145 Q1943.92 151.905 1943.92 155.076 Q1943.92 158.687 1941.05 160.793 Q1938.2 162.9 1933.2 162.9 Q1931.12 162.9 1928.85 162.483 Q1926.6 162.09 1924.1 161.28 L1924.1 156.881 Q1926.46 158.108 1928.75 158.733 Q1931.05 159.335 1933.29 159.335 Q1936.3 159.335 1937.92 158.317 Q1939.54 157.275 1939.54 155.4 Q1939.54 153.664 1938.36 152.738 Q1937.2 151.812 1933.25 150.956 L1931.76 150.608 Q1927.81 149.775 1926.05 148.062 Q1924.29 146.326 1924.29 143.317 Q1924.29 139.659 1926.88 137.669 Q1929.47 135.678 1934.24 135.678 Q1936.6 135.678 1938.68 136.025 Q1940.77 136.372 1942.53 137.067 Z" fill="#000000" fill-rule="evenodd" fill-opacity="1" /><path clip-path="url(#clip850)" d="M1972.87 148.201 L1972.87 150.284 L1953.29 150.284 Q1953.57 154.682 1955.93 156.997 Q1958.31 159.289 1962.55 159.289 Q1965 159.289 1967.3 158.687 Q1969.61 158.085 1971.88 156.881 L1971.88 160.909 Q1969.59 161.881 1967.18 162.391 Q1964.77 162.9 1962.3 162.9 Q1956.09 162.9 1952.46 159.289 Q1948.85 155.678 1948.85 149.52 Q1948.85 143.155 1952.27 139.428 Q1955.72 135.678 1961.56 135.678 Q1966.79 135.678 1969.82 139.057 Q1972.87 142.414 1972.87 148.201 M1968.62 146.951 Q1968.57 143.456 1966.65 141.372 Q1964.75 139.289 1961.6 139.289 Q1958.04 139.289 1955.88 141.303 Q1953.75 143.317 1953.43 146.974 L1968.62 146.951 Z" fill="#000000" fill-rule="evenodd" fill-opacity="1" /><path clip-path="url(#clip850)" d="M2000.05 141.28 Q2001.65 138.409 2003.87 137.044 Q2006.09 135.678 2009.1 135.678 Q2013.15 135.678 2015.35 138.525 Q2017.55 141.349 2017.55 146.581 L2017.55 162.229 L2013.27 162.229 L2013.27 146.719 Q2013.27 142.993 2011.95 141.187 Q2010.63 139.382 2007.92 139.382 Q2004.61 139.382 2002.69 141.581 Q2000.77 143.78 2000.77 147.576 L2000.77 162.229 L1996.49 162.229 L1996.49 146.719 Q1996.49 142.969 1995.17 141.187 Q1993.85 139.382 1991.09 139.382 Q1987.83 139.382 1985.91 141.604 Q1983.99 143.803 1983.99 147.576 L1983.99 162.229 L1979.7 162.229 L1979.7 136.303 L1983.99 136.303 L1983.99 140.331 Q1985.44 137.946 1987.48 136.812 Q1989.52 135.678 1992.32 135.678 Q1995.14 135.678 1997.11 137.113 Q1999.1 138.548 2000.05 141.28 Z" fill="#000000" fill-rule="evenodd" fill-opacity="1" /><path clip-path="url(#clip850)" d="M2044.66 149.289 Q2044.66 144.59 2042.71 141.928 Q2040.79 139.243 2037.41 139.243 Q2034.03 139.243 2032.09 141.928 Q2030.17 144.59 2030.17 149.289 Q2030.17 153.988 2032.09 156.673 Q2034.03 159.335 2037.41 159.335 Q2040.79 159.335 2042.71 156.673 Q2044.66 153.988 2044.66 149.289 M2030.17 140.238 Q2031.51 137.923 2033.55 136.812 Q2035.61 135.678 2038.45 135.678 Q2043.18 135.678 2046.11 139.428 Q2049.08 143.178 2049.08 149.289 Q2049.08 155.4 2046.11 159.15 Q2043.18 162.9 2038.45 162.9 Q2035.61 162.9 2033.55 161.789 Q2031.51 160.655 2030.17 158.34 L2030.17 162.229 L2025.88 162.229 L2025.88 126.21 L2030.17 126.21 L2030.17 140.238 Z" fill="#000000" fill-rule="evenodd" fill-opacity="1" /><path clip-path="url(#clip850)" d="M2056.14 126.21 L2060.4 126.21 L2060.4 162.229 L2056.14 162.229 L2056.14 126.21 Z" fill="#000000" fill-rule="evenodd" fill-opacity="1" /><path clip-path="url(#clip850)" d="M2091.49 148.201 L2091.49 150.284 L2071.9 150.284 Q2072.18 154.682 2074.54 156.997 Q2076.92 159.289 2081.16 159.289 Q2083.61 159.289 2085.91 158.687 Q2088.22 158.085 2090.49 156.881 L2090.49 160.909 Q2088.2 161.881 2085.79 162.391 Q2083.38 162.9 2080.91 162.9 Q2074.7 162.9 2071.07 159.289 Q2067.46 155.678 2067.46 149.52 Q2067.46 143.155 2070.88 139.428 Q2074.33 135.678 2080.17 135.678 Q2085.4 135.678 2088.43 139.057 Q2091.49 142.414 2091.49 148.201 M2087.23 146.951 Q2087.18 143.456 2085.26 141.372 Q2083.36 139.289 2080.21 139.289 Q2076.65 139.289 2074.49 141.303 Q2072.36 143.317 2072.04 146.974 L2087.23 146.951 Z" fill="#000000" fill-rule="evenodd" fill-opacity="1" /><path clip-path="url(#clip850)" d="M2113.73 127.669 L2120.7 127.669 L2129.52 151.187 L2138.38 127.669 L2145.35 127.669 L2145.35 162.229 L2140.79 162.229 L2140.79 131.882 L2131.88 155.585 L2127.18 155.585 L2118.27 131.882 L2118.27 162.229 L2113.73 162.229 L2113.73 127.669 Z" fill="#000000" fill-rule="evenodd" fill-opacity="1" /><path clip-path="url(#clip850)" d="M2176.62 148.201 L2176.62 150.284 L2157.04 150.284 Q2157.32 154.682 2159.68 156.997 Q2162.06 159.289 2166.3 159.289 Q2168.75 159.289 2171.04 158.687 Q2173.36 158.085 2175.63 156.881 L2175.63 160.909 Q2173.34 161.881 2170.93 162.391 Q2168.52 162.9 2166.04 162.9 Q2159.84 162.9 2156.21 159.289 Q2152.6 155.678 2152.6 149.52 Q2152.6 143.155 2156.02 139.428 Q2159.47 135.678 2165.3 135.678 Q2170.54 135.678 2173.57 139.057 Q2176.62 142.414 2176.62 148.201 M2172.36 146.951 Q2172.32 143.456 2170.4 141.372 Q2168.5 139.289 2165.35 139.289 Q2161.79 139.289 2159.63 141.303 Q2157.5 143.317 2157.18 146.974 L2172.36 146.951 Z" fill="#000000" fill-rule="evenodd" fill-opacity="1" /><path clip-path="url(#clip850)" d="M2195.4 149.196 Q2190.23 149.196 2188.24 150.377 Q2186.25 151.557 2186.25 154.405 Q2186.25 156.673 2187.73 158.016 Q2189.24 159.335 2191.81 159.335 Q2195.35 159.335 2197.48 156.835 Q2199.63 154.312 2199.63 150.145 L2199.63 149.196 L2195.4 149.196 M2203.89 147.437 L2203.89 162.229 L2199.63 162.229 L2199.63 158.293 Q2198.17 160.655 2196 161.789 Q2193.82 162.9 2190.67 162.9 Q2186.69 162.9 2184.33 160.678 Q2181.99 158.432 2181.99 154.682 Q2181.99 150.307 2184.91 148.085 Q2187.85 145.863 2193.66 145.863 L2199.63 145.863 L2199.63 145.446 Q2199.63 142.507 2197.69 140.909 Q2195.77 139.289 2192.27 139.289 Q2190.05 139.289 2187.94 139.821 Q2185.84 140.354 2183.89 141.419 L2183.89 137.483 Q2186.23 136.581 2188.43 136.141 Q2190.63 135.678 2192.71 135.678 Q2198.34 135.678 2201.11 138.594 Q2203.89 141.511 2203.89 147.437 Z" fill="#000000" fill-rule="evenodd" fill-opacity="1" /><path clip-path="url(#clip850)" d="M2234.22 146.581 L2234.22 162.229 L2229.96 162.229 L2229.96 146.719 Q2229.96 143.039 2228.52 141.21 Q2227.09 139.382 2224.22 139.382 Q2220.77 139.382 2218.78 141.581 Q2216.79 143.78 2216.79 147.576 L2216.79 162.229 L2212.5 162.229 L2212.5 136.303 L2216.79 136.303 L2216.79 140.331 Q2218.31 137.993 2220.37 136.835 Q2222.46 135.678 2225.16 135.678 Q2229.63 135.678 2231.92 138.456 Q2234.22 141.21 2234.22 146.581 Z" fill="#000000" fill-rule="evenodd" fill-opacity="1" /><polyline clip-path="url(#clip850)" style="stroke:#e26f46; stroke-linecap:butt; stroke-linejoin:round; stroke-width:4; stroke-opacity:1; fill:none" points="
  1700.23,196.789 1842.48,196.789 
  "/>
<path clip-path="url(#clip850)" d="M1873.59 180.782 L1873.59 188.143 L1882.37 188.143 L1882.37 191.453 L1873.59 191.453 L1873.59 205.527 Q1873.59 208.698 1874.45 209.601 Q1875.33 210.504 1877.99 210.504 L1882.37 210.504 L1882.37 214.069 L1877.99 214.069 Q1873.06 214.069 1871.19 212.24 Q1869.31 210.388 1869.31 205.527 L1869.31 191.453 L1866.19 191.453 L1866.19 188.143 L1869.31 188.143 L1869.31 180.782 L1873.59 180.782 Z" fill="#000000" fill-rule="evenodd" fill-opacity="1" /><path clip-path="url(#clip850)" d="M1902.99 192.124 Q1902.27 191.708 1901.42 191.522 Q1900.58 191.314 1899.56 191.314 Q1895.95 191.314 1894.01 193.675 Q1892.09 196.013 1892.09 200.411 L1892.09 214.069 L1887.81 214.069 L1887.81 188.143 L1892.09 188.143 L1892.09 192.171 Q1893.43 189.809 1895.58 188.675 Q1897.74 187.518 1900.81 187.518 Q1901.25 187.518 1901.79 187.587 Q1902.32 187.634 1902.97 187.749 L1902.99 192.124 Z" fill="#000000" fill-rule="evenodd" fill-opacity="1" /><path clip-path="url(#clip850)" d="M1907.02 203.837 L1907.02 188.143 L1911.28 188.143 L1911.28 203.675 Q1911.28 207.356 1912.71 209.208 Q1914.15 211.036 1917.02 211.036 Q1920.47 211.036 1922.46 208.837 Q1924.47 206.638 1924.47 202.842 L1924.47 188.143 L1928.73 188.143 L1928.73 214.069 L1924.47 214.069 L1924.47 210.087 Q1922.92 212.448 1920.86 213.606 Q1918.82 214.74 1916.12 214.74 Q1911.65 214.74 1909.33 211.962 Q1907.02 209.184 1907.02 203.837 M1917.74 187.518 L1917.74 187.518 Z" fill="#000000" fill-rule="evenodd" fill-opacity="1" /><path clip-path="url(#clip850)" d="M1959.68 200.041 L1959.68 202.124 L1940.1 202.124 Q1940.37 206.522 1942.74 208.837 Q1945.12 211.129 1949.36 211.129 Q1951.81 211.129 1954.1 210.527 Q1956.42 209.925 1958.68 208.721 L1958.68 212.749 Q1956.39 213.721 1953.99 214.231 Q1951.58 214.74 1949.1 214.74 Q1942.9 214.74 1939.26 211.129 Q1935.65 207.518 1935.65 201.36 Q1935.65 194.995 1939.08 191.268 Q1942.53 187.518 1948.36 187.518 Q1953.59 187.518 1956.62 190.897 Q1959.68 194.254 1959.68 200.041 M1955.42 198.791 Q1955.37 195.296 1953.45 193.212 Q1951.56 191.129 1948.41 191.129 Q1944.84 191.129 1942.69 193.143 Q1940.56 195.157 1940.24 198.814 L1955.42 198.791 Z" fill="#000000" fill-rule="evenodd" fill-opacity="1" /><path clip-path="url(#clip850)" d="M1978.68 188.143 L1983.2 188.143 L1991.3 209.902 L1999.4 188.143 L2003.92 188.143 L1994.19 214.069 L1988.41 214.069 L1978.68 188.143 Z" fill="#000000" fill-rule="evenodd" fill-opacity="1" /><path clip-path="url(#clip850)" d="M2021.58 201.036 Q2016.42 201.036 2014.43 202.217 Q2012.43 203.397 2012.43 206.245 Q2012.43 208.513 2013.92 209.856 Q2015.42 211.175 2017.99 211.175 Q2021.53 211.175 2023.66 208.675 Q2025.81 206.152 2025.81 201.985 L2025.81 201.036 L2021.58 201.036 M2030.07 199.277 L2030.07 214.069 L2025.81 214.069 L2025.81 210.133 Q2024.36 212.495 2022.18 213.629 Q2020 214.74 2016.86 214.74 Q2012.87 214.74 2010.51 212.518 Q2008.18 210.272 2008.18 206.522 Q2008.18 202.147 2011.09 199.925 Q2014.03 197.703 2019.84 197.703 L2025.81 197.703 L2025.81 197.286 Q2025.81 194.347 2023.87 192.749 Q2021.95 191.129 2018.45 191.129 Q2016.23 191.129 2014.12 191.661 Q2012.02 192.194 2010.07 193.259 L2010.07 189.323 Q2012.41 188.421 2014.61 187.981 Q2016.81 187.518 2018.89 187.518 Q2024.52 187.518 2027.3 190.434 Q2030.07 193.351 2030.07 199.277 Z" fill="#000000" fill-rule="evenodd" fill-opacity="1" /><path clip-path="url(#clip850)" d="M2038.85 178.05 L2043.11 178.05 L2043.11 214.069 L2038.85 214.069 L2038.85 178.05 Z" fill="#000000" fill-rule="evenodd" fill-opacity="1" /><path clip-path="url(#clip850)" d="M2051.58 203.837 L2051.58 188.143 L2055.84 188.143 L2055.84 203.675 Q2055.84 207.356 2057.27 209.208 Q2058.71 211.036 2061.58 211.036 Q2065.03 211.036 2067.02 208.837 Q2069.03 206.638 2069.03 202.842 L2069.03 188.143 L2073.29 188.143 L2073.29 214.069 L2069.03 214.069 L2069.03 210.087 Q2067.48 212.448 2065.42 213.606 Q2063.38 214.74 2060.68 214.74 Q2056.21 214.74 2053.89 211.962 Q2051.58 209.184 2051.58 203.837 M2062.3 187.518 L2062.3 187.518 Z" fill="#000000" fill-rule="evenodd" fill-opacity="1" /><path clip-path="url(#clip850)" d="M2104.24 200.041 L2104.24 202.124 L2084.66 202.124 Q2084.93 206.522 2087.3 208.837 Q2089.68 211.129 2093.92 211.129 Q2096.37 211.129 2098.66 210.527 Q2100.98 209.925 2103.24 208.721 L2103.24 212.749 Q2100.95 213.721 2098.55 214.231 Q2096.14 214.74 2093.66 214.74 Q2087.46 214.74 2083.82 211.129 Q2080.21 207.518 2080.21 201.36 Q2080.21 194.995 2083.64 191.268 Q2087.09 187.518 2092.92 187.518 Q2098.15 187.518 2101.18 190.897 Q2104.24 194.254 2104.24 200.041 M2099.98 198.791 Q2099.93 195.296 2098.01 193.212 Q2096.11 191.129 2092.97 191.129 Q2089.4 191.129 2087.25 193.143 Q2085.12 195.157 2084.8 198.814 L2099.98 198.791 Z" fill="#000000" fill-rule="evenodd" fill-opacity="1" /></svg>
